<?xml version="1.0" encoding="UTF-8" standalone="no"?>
<!DOCTYPE svg PUBLIC "-//W3C//DTD SVG 1.1//EN" "http://www.w3.org/Graphics/SVG/1.1/DTD/svg11.dtd">
<svg width="100%" height="100%" viewBox="0 0 1920 255" version="1.1" xmlns="http://www.w3.org/2000/svg" xmlns:xlink="http://www.w3.org/1999/xlink" xml:space="preserve" xmlns:serif="http://www.serif.com/" style="fill-rule:evenodd;clip-rule:evenodd;stroke-linejoin:round;stroke-miterlimit:2;">
    <g transform="matrix(13.9665,0,0,13.9665,-5729.92,-9314.17)">
        <g>
            <path d="M438.39,667.374L438.39,684.654L432.39,684.654L432.39,673.134L427.11,684.654L421.542,684.654L416.262,673.134L416.262,684.654L410.262,684.654L410.262,667.374L419.622,667.374L424.326,677.67L429.03,667.374L438.39,667.374Z" style="fill:rgb(1,71,249);fill-rule:nonzero;"/>
            <g transform="matrix(-0.110755,-1.00937e-17,1.126e-17,-0.119767,511.794,749.207)">
                <path d="M789.673,637.121L812.746,683.267L766.6,683.267L789.673,637.121Z" style="fill:rgb(1,71,249);"/>
            </g>
        </g>
        <g transform="matrix(0.299632,0,0,0.299632,191.351,473.459)">
            <path d="M877.315,694.757L856.914,694.757L852.188,704.85L830.882,704.85L858.516,647.179L887.031,647.179L914.664,704.85L894.212,704.85L878.44,672.986L872.773,660.956L863.642,680.34L870.703,680.34L877.315,694.757Z" style="fill:rgb(1,71,249);fill-rule:nonzero;"/>
        </g>
        <g>
            <g transform="matrix(0.299632,0,0,0.255774,191.351,501.843)">
                <path d="M941.097,663.165L941.097,663.186L921.072,663.186L921.072,647.179L965.927,647.179C973.83,647.179 979.784,648.768 983.789,651.945C987.794,655.122 989.738,661.965 989.738,668.622C989.738,676.818 987.794,682.122 983.789,685.299C979.784,688.476 973.83,690.065 965.927,690.065L921.072,690.065L921.072,674.058L941.097,674.058L941.097,674.079L950.992,674.079L950.992,674.045L961.121,674.045C963.044,674.045 964.512,673.952 965.527,673.765C966.541,673.578 967.369,673.097 968.01,672.323C968.648,671.552 968.968,670.319 968.971,668.622C968.968,666.925 968.648,665.692 968.01,664.921C967.369,664.147 966.541,663.666 965.527,663.479C964.512,663.292 963.044,663.199 961.121,663.199L950.992,663.199L950.992,663.165L941.097,663.165Z" style="fill:rgb(1,71,249);fill-rule:nonzero;"/>
            </g>
            <g transform="matrix(1.73418,0,0,0.281335,-1133.02,490.515)">
                <rect x="922.834" y="674.159" width="11.864" height="15.906" style="fill:rgb(1,71,249);"/>
            </g>
        </g>
        <rect x="490.806" y="667.374" width="6" height="17.28" style="fill:rgb(1,71,249);fill-rule:nonzero;"/>
        <path d="M516.774,678.798L516.774,667.374L522.774,667.374L522.774,684.654L513.894,684.654L505.686,673.23L505.686,684.654L499.686,684.654L499.686,667.374L508.566,667.374L516.774,678.798Z" style="fill:rgb(1,71,249);fill-rule:nonzero;"/>
        <path d="M536.454,685.134C534.07,685.134 532.038,684.778 530.358,684.066C528.678,683.354 527.394,682.314 526.506,680.946C525.618,679.578 525.174,677.926 525.174,675.99C525.174,674.054 525.618,672.406 526.506,671.046C527.394,669.686 528.678,668.654 530.358,667.95C532.038,667.246 534.07,666.894 536.454,666.894C538.822,666.894 540.85,667.25 542.538,667.962C544.226,668.674 545.514,669.71 546.402,671.07C547.29,672.43 547.734,674.07 547.734,675.99C547.734,677.926 547.29,679.578 546.402,680.946C545.514,682.314 544.226,683.354 542.538,684.066C540.85,684.778 538.822,685.134 536.454,685.134ZM536.454,680.094C539.814,680.094 541.494,678.726 541.494,675.99C541.494,674.742 541.114,673.754 540.354,673.026C539.594,672.298 538.294,671.934 536.454,671.934C534.614,671.934 533.314,672.298 532.554,673.026C531.794,673.754 531.414,674.742 531.414,675.99C531.414,678.726 533.094,680.094 536.454,680.094Z" style="fill:rgb(1,71,249);fill-rule:nonzero;"/>
    </g>
</svg>
